<svg width="204" height="21" viewBox="0 0 204 21" fill="none" xmlns="http://www.w3.org/2000/svg">
<g clip-path="url(#clip0_3_12)">
<path d="M100.653 14.7116H98.1985V2.92556H100.653V4.64494C101.409 3.29994 102.598 2.62744 104.22 2.62744C105.678 2.62744 106.819 3.06422 107.651 3.94471C108.482 4.8252 108.902 6.05927 108.902 7.64692V14.7116H106.489V8.38182C106.489 7.16161 106.221 6.26032 105.691 5.67795C105.162 5.09558 104.454 4.8044 103.574 4.8044C102.694 4.8044 101.979 5.13025 101.471 5.78195C100.962 6.43365 100.687 7.33494 100.639 8.49968V14.7116H100.653Z" fill="#25313E"/>
<path d="M116.69 14.9889C115.419 14.9889 114.319 14.7324 113.391 14.2194C112.463 13.7063 111.761 12.9992 111.273 12.084C110.785 11.1758 110.545 10.1289 110.545 8.95725C110.545 7.78558 110.792 6.66244 111.294 5.69875C111.796 4.73507 112.483 3.98631 113.363 3.4386C114.243 2.89783 115.233 2.62744 116.34 2.62744C117.446 2.62744 118.354 2.87703 119.192 3.38314C120.031 3.88924 120.691 4.58948 121.159 5.48383C121.626 6.37818 121.867 7.3904 121.867 8.52048V9.3455H113.047C113.171 10.4756 113.569 11.363 114.243 12.0078C114.917 12.6525 115.824 12.9714 116.958 12.9714C118.491 12.9714 119.653 12.4237 120.457 11.3214L121.777 12.6525C120.395 14.2125 118.698 14.9889 116.683 14.9889H116.69ZM116.305 4.62414C115.501 4.62414 114.807 4.89453 114.222 5.4353C113.638 5.97607 113.274 6.7179 113.123 7.64692H119.309C119.234 6.73177 118.918 5.99687 118.368 5.44916C117.818 4.90146 117.13 4.62414 116.312 4.62414H116.305Z" fill="#25313E"/>
<path d="M122.21 2.92578H124.596L127.118 12.2784L130.191 2.92578H132.398L135.464 12.1674L137.945 2.92578H140.262L136.852 14.7118H134.171L131.305 5.67817L128.328 14.7118H125.647L122.217 2.92578H122.21Z" fill="#25313E"/>
<path d="M145.947 14.9889C144.703 14.9889 143.63 14.781 142.73 14.3719C141.829 13.9559 141.011 13.332 140.283 12.4931L141.692 11.051C142.345 11.7512 143.005 12.2712 143.679 12.5971C144.352 12.9229 145.095 13.0893 145.892 13.0893C146.689 13.0893 147.329 12.9507 147.789 12.6664C148.25 12.3821 148.484 11.98 148.484 11.4601C148.484 10.9401 148.209 10.531 147.652 10.2329C147.102 9.9348 146.291 9.70601 145.232 9.55349C142.441 9.09591 141.046 7.97277 141.046 6.18406C141.046 5.06785 141.472 4.1943 142.331 3.57033C143.19 2.94636 144.27 2.62744 145.569 2.62744C146.6 2.62744 147.487 2.80077 148.229 3.15435C148.972 3.50793 149.638 3.99324 150.23 4.62414L148.772 6.0246C148.271 5.49076 147.776 5.10945 147.281 4.88066C146.786 4.65187 146.236 4.53401 145.631 4.53401C144.95 4.53401 144.393 4.67267 143.974 4.95692C143.548 5.24118 143.335 5.60862 143.335 6.0662C143.335 6.57231 143.596 6.93976 144.118 7.17548C144.641 7.4112 145.445 7.61225 146.538 7.78558C147.782 7.96584 148.807 8.34022 149.618 8.89486C150.429 9.44949 150.835 10.2537 150.835 11.2937C150.835 12.5 150.374 13.4152 149.446 14.0461C148.518 14.67 147.349 14.9889 145.92 14.9889H145.947Z" fill="#25313E"/>
<path d="M154.856 14.7118H152.402V2.92576H154.856V5.08192C155.193 4.34702 155.653 3.77159 156.245 3.34867C156.836 2.92576 157.544 2.71777 158.362 2.71777C158.589 2.71777 158.754 2.72471 158.864 2.73857L158.816 5.17205C158.712 5.15818 158.506 5.15125 158.204 5.15125C157.235 5.15125 156.437 5.4771 155.805 6.13573C155.172 6.79437 154.863 7.68179 154.863 8.798V14.7118H154.856Z" fill="#25313E"/>
<path d="M165.264 14.9889C164.068 14.9889 163.016 14.7255 162.101 14.1986C161.194 13.6717 160.493 12.9437 159.998 12.0078C159.503 11.0787 159.262 10.0111 159.262 8.81859C159.262 7.62612 159.51 6.54458 159.998 5.60862C160.493 4.6796 161.194 3.94471 162.101 3.4178C163.009 2.89089 164.061 2.62744 165.264 2.62744C166.467 2.62744 167.512 2.89089 168.426 3.4178C169.34 3.94471 170.034 4.67267 170.529 5.60862C171.024 6.54458 171.272 7.61226 171.272 8.81859C171.272 10.0249 171.024 11.0718 170.529 12.0078C170.034 12.9437 169.333 13.6717 168.426 14.1986C167.518 14.7255 166.46 14.9889 165.264 14.9889ZM165.264 12.8813C166.322 12.8813 167.175 12.5069 167.807 11.7582C168.446 11.0094 168.763 10.0319 168.763 8.82553C168.763 7.61919 168.446 6.64164 167.807 5.89288C167.168 5.14411 166.322 4.76973 165.264 4.76973C164.205 4.76973 163.373 5.14411 162.727 5.89288C162.081 6.64164 161.758 7.61919 161.758 8.82553C161.758 10.0319 162.081 11.0094 162.727 11.7582C163.373 12.5069 164.219 12.8813 165.264 12.8813Z" fill="#25313E"/>
<path d="M178.352 14.9889C177.156 14.9889 176.104 14.7255 175.19 14.1986C174.283 13.6717 173.581 12.9437 173.087 12.0078C172.592 11.0787 172.351 10.0111 172.351 8.81859C172.351 7.62612 172.598 6.54458 173.087 5.60862C173.581 4.6796 174.283 3.94471 175.19 3.4178C176.097 2.89089 177.149 2.62744 178.352 2.62744C179.555 2.62744 180.6 2.89089 181.514 3.4178C182.429 3.94471 183.123 4.67267 183.618 5.60862C184.113 6.54458 184.36 7.61226 184.36 8.81859C184.36 10.0249 184.113 11.0718 183.618 12.0078C183.123 12.9437 182.422 13.6717 181.514 14.1986C180.607 14.7255 179.548 14.9889 178.352 14.9889ZM178.352 12.8813C179.411 12.8813 180.263 12.5069 180.896 11.7582C181.535 11.0094 181.851 10.0319 181.851 8.82553C181.851 7.61919 181.535 6.64164 180.896 5.89288C180.256 5.14411 179.411 4.76973 178.352 4.76973C177.294 4.76973 176.462 5.14411 175.816 5.89288C175.169 6.64164 174.846 7.61919 174.846 8.82553C174.846 10.0319 175.169 11.0094 175.816 11.7582C176.462 12.5069 177.307 12.8813 178.352 12.8813Z" fill="#25313E"/>
<path d="M188.313 14.7116H185.859V2.92556H188.313V4.64494C189.069 3.29994 190.258 2.62744 191.881 2.62744C192.836 2.62744 193.647 2.85623 194.328 3.31381C195.002 3.77138 195.497 4.45775 195.82 5.37984C196.184 4.47855 196.686 3.79218 197.318 3.32767C197.958 2.86316 198.769 2.62744 199.752 2.62744C201.037 2.62744 202.068 3.05035 202.845 3.88924C203.615 4.72813 204.007 5.983 204.007 7.64692V14.7116H201.553V8.38182C201.553 5.99687 200.742 4.8044 199.119 4.8044C198.253 4.8044 197.559 5.13025 197.03 5.78195C196.5 6.43365 196.205 7.33494 196.143 8.49968V14.7116H193.709V8.38182C193.709 5.99687 192.891 4.8044 191.255 4.8044C190.389 4.8044 189.695 5.13025 189.172 5.78195C188.65 6.43365 188.368 7.33494 188.32 8.49968V14.7116H188.313Z" fill="#25313E"/>
<path d="M8.77842 4.22202L10.8819 3.11275C10.8819 3.11275 11.0469 3.02955 10.9369 2.8285C10.8269 2.62051 9.71331 -0.0833568 5.47878 0.0345038C1.25112 0.152365 9.52871e-06 3.41087 9.52871e-06 5.01238V9.49802C9.52871e-06 9.49802 -0.261212 14.6562 5.49253 14.9335C5.49253 14.9335 9.56208 15.2455 10.9782 12.084C10.9782 12.084 11.0607 11.9176 10.8957 11.8344L8.64093 10.6974C8.64093 10.6974 8.47595 10.6142 8.37971 10.8084C8.26972 11.0163 7.71291 12.3544 5.77437 12.3544C3.83584 12.3544 2.88719 10.947 2.88719 9.61588V5.31744C2.88719 5.31744 2.90094 2.57891 5.77437 2.57891C7.59605 2.57891 8.17348 3.71592 8.39346 4.15269C8.40721 4.19429 8.4622 4.38842 8.77154 4.20816L8.77842 4.22202Z" fill="#894F23"/>
<path d="M17.6805 0.034668H17.653C11.9405 0.0623999 11.8718 5.17201 11.8718 5.44239V9.51899C11.8718 9.51899 11.7756 14.9267 17.653 14.9406H17.6805C23.393 14.9267 23.4618 9.7963 23.4618 9.52592V5.44933C23.4618 5.44933 23.5443 0.0416009 17.6805 0.034668ZM20.5402 9.64378C20.5402 10.7669 19.7703 12.3962 17.653 12.3962C15.5358 12.3962 14.7659 10.7669 14.7659 9.64378V5.34533C14.7659 4.59657 15.2677 2.59294 17.653 2.59294C18.8492 2.59294 19.571 3.09211 19.9972 3.68835C20.4165 4.28459 20.5471 4.97095 20.5471 5.34533V9.64378H20.5402Z" fill="#894F23"/>
<path d="M58.0117 -5.83811e-05C58.0117 -5.83811e-05 56.2244 -0.0763211 53.7085 0.894296L53.3441 1.03296C53.2479 1.06762 53.1998 1.17162 53.2341 1.26174L53.9697 3.3555C53.9697 3.3555 54.0247 3.54963 54.2721 3.4387C54.5196 3.32777 56.1557 2.53741 58.0117 2.53741C60.349 2.53741 60.8095 3.98641 60.8095 5.76818C60.8095 5.76818 59.4691 4.68664 57.5168 4.68664C54.7877 4.68664 52.3061 6.46841 52.3061 9.82398C52.3061 11.9316 53.516 14.9544 57.5443 14.9544C57.5443 14.9544 59.4003 15.0376 60.9058 13.8035V14.4899C60.9058 14.4899 60.9195 14.6701 61.0845 14.6701H63.3393C63.3393 14.6701 63.518 14.6563 63.518 14.4899V5.3314C63.518 5.3314 63.4905 -5.83811e-05 58.0117 -5.83811e-05ZM57.9155 12.4654C56.5063 12.4654 55.207 11.4671 55.207 9.77544C55.207 8.58297 56.0045 7.07852 57.9155 7.07852C60.239 7.07852 60.8302 8.80483 60.8302 9.66452C60.8164 10.9471 60.1152 12.4654 57.9155 12.4654Z" fill="#FAC000"/>
<path d="M77.404 5.46341V14.4763C77.404 14.5733 77.3215 14.6635 77.2184 14.6635H74.6611C74.5649 14.6635 74.4755 14.5803 74.4755 14.4763V5.35249C74.4755 4.22934 73.6919 2.60009 71.5884 2.60009C69.4848 2.60009 68.7012 4.22934 68.7012 5.35249V14.4763C68.7012 14.5733 68.6187 14.6635 68.5224 14.6635H65.979C65.8759 14.6635 65.7934 14.5803 65.7934 14.4763V0.492465C65.7934 0.395404 65.869 0.305275 65.979 0.305275H68.3231C68.4193 0.305275 68.5018 0.388471 68.5018 0.492465V1.51161C69.9867 -0.12457 72.4064 0.0487545 72.4064 0.0487545C75.2661 0.0487545 77.404 2.21184 77.404 5.46341Z" fill="#80BC26"/>
<path d="M92.3004 0.103901H91.9911C91.4205 0.1247 90.19 0.298024 89.2139 1.3865C89.2139 1.3865 87.8803 0.0415039 85.0756 0.0415039C81.8447 0.0415039 79.2944 1.97581 79.2944 5.22044C79.2944 6.33665 79.6587 8.34028 81.4804 9.58129C81.4804 9.58129 79.4044 10.5935 79.4044 13.2766V14.476C79.4044 14.58 79.4869 14.6632 79.59 14.6632H87.9697C89.0146 14.6632 89.6676 15.509 89.6676 16.3409C89.6676 16.3409 89.8257 17.6166 88.1072 18.5942C88.1072 18.5942 87.9559 18.6843 88.0384 18.8368C88.1209 18.9893 89.1658 20.9028 89.1658 20.9028C89.1658 20.9028 89.262 21.0692 89.4133 20.9722C89.4133 20.9722 92.2248 19.6896 92.2248 16.3687C92.2248 14.8018 91.1937 12.2297 87.9765 12.2297H82.1816C82.1816 12.2297 82.3947 10.5172 84.505 10.5172H85.2475C88.5815 10.5172 90.8912 8.25709 90.8912 5.49083C90.8912 5.49083 90.96 4.1181 90.4306 3.03655C90.4306 3.03655 91.2349 2.47498 92.2867 2.57897C92.2867 2.57897 92.4929 2.57897 92.4929 2.39178V0.284158C92.4929 0.187097 92.4104 0.0969678 92.3142 0.0969678L92.3004 0.103901ZM84.9931 7.9659C83.5427 7.9659 82.2159 6.96062 82.2159 5.26897C82.2159 4.0765 83.0408 2.57897 84.9931 2.57897C87.3854 2.57897 87.9834 4.29835 87.9834 5.15804C87.9972 6.44065 87.2754 7.9659 84.9931 7.9659Z" fill="#3BACDC"/>
<path d="M36.8115 0.305273H34.275C34.1718 0.305273 34.0893 0.388469 34.0893 0.492463L34.0756 9.63013C34.0756 10.7533 33.2988 12.3825 31.1884 12.3825C29.078 12.3825 28.3012 10.7533 28.3012 9.63013V0.48553C28.3012 0.381536 28.2187 0.29834 28.1225 0.29834H25.5722C25.4691 0.29834 25.3934 0.381536 25.3934 0.48553V9.51227C25.3934 12.7708 27.5244 14.9339 30.3841 14.9339C30.3841 14.9339 32.8107 15.1003 34.2818 13.471V14.4763C34.2818 14.5803 34.3643 14.6635 34.4674 14.6635H36.8322C36.9353 14.6635 37.0109 14.5803 37.0109 14.4763V0.48553C37.0109 0.381536 36.9284 0.29834 36.8322 0.29834L36.8115 0.305273Z" fill="#894F23"/>
<path d="M45.6793 0.0415039C43.8645 0.0415039 42.7372 0.714003 41.9397 1.52516V0.485215C41.9397 0.388153 41.8573 0.298024 41.761 0.298024H39.41C39.3138 0.298024 39.2313 0.38122 39.2313 0.485215V20.4591C39.2313 20.5562 39.3138 20.6394 39.41 20.6394H41.9535C42.0566 20.6394 42.1322 20.5631 42.1322 20.4591C42.1322 20.4591 42.1666 16.9372 42.1322 13.6579C42.9228 14.3789 44.1395 14.9613 45.7 14.9613C47.2604 14.9613 48.5184 14.3928 49.4189 13.436C50.3057 12.4793 50.8213 11.1273 50.8213 9.53275V5.47696C50.8213 2.59284 49.1096 0.0484369 45.6862 0.0484369L45.6793 0.0415039ZM47.8928 9.62288C47.8928 10.746 47.1229 12.3753 45.0057 12.3753C42.8884 12.3753 42.1185 10.746 42.1185 9.62288V5.33137C42.1185 4.57567 42.6203 2.58591 45.0057 2.58591C46.1949 2.58591 46.9236 3.07815 47.3498 3.68132C47.7691 4.27062 47.8997 4.95699 47.8997 5.3383V9.62982L47.8928 9.62288Z" fill="#E94B22"/>
</g>
<defs>
<clipPath id="clip0_3_12">
<rect width="204" height="21" fill="white"/>
</clipPath>
</defs>
</svg>
